<?xml version="1.0" encoding="UTF-8"?>
<svg xmlns="http://www.w3.org/2000/svg" xmlns:xlink="http://www.w3.org/1999/xlink" width="33pt" height="33pt" viewBox="0 0 33 33" version="1.1">
<g id="surface1">
<path style=" stroke:none;fill-rule:nonzero;fill:rgb(0%,0%,0%);fill-opacity:1;" d="M 31.554688 12.683594 C 30.59375 11 28.339844 10.136719 26.070312 10.585938 C 23.734375 11.054688 20.015625 12.710938 18.226562 13.550781 C 19.554688 11.96875 21.945312 9.019531 22.957031 6.988281 C 23.933594 4.992188 23.460938 2.597656 21.8125 1.109375 C 20.292969 -0.230469 18.234375 -0.355469 16.191406 0.730469 C 12.785156 -0.734375 10.957031 0.335938 10.148438 1.144531 C 8.773438 2.515625 8.539062 4.917969 9.574219 6.988281 C 10.566406 8.964844 12.851562 11.8125 14.203125 13.417969 C 12.328125 12.546875 8.855469 11.03125 6.636719 10.585938 C 4.367188 10.136719 2.113281 11 1.148438 12.683594 C 0.585938 13.679688 0.0351562 15.722656 2.34375 18.617188 C 1.839844 20.878906 2.503906 22.828125 4.195312 23.941406 C 6.066406 25.140625 8.5 24.960938 10.167969 23.496094 C 11.703125 22.117188 13.675781 19.453125 14.898438 17.699219 C 14.746094 18.597656 14.519531 19.480469 14.304688 20.351562 C 13.320312 24.226562 12.210938 28.617188 18.246094 32.640625 L 19.761719 30.367188 C 15.332031 27.410156 15.976562 24.871094 16.957031 21.019531 C 17.265625 19.875 17.511719 18.710938 17.6875 17.53125 C 18.902344 19.277344 20.949219 22.078125 22.535156 23.496094 C 24.203125 24.960938 26.636719 25.144531 28.507812 23.941406 C 30.203125 22.828125 30.867188 20.878906 30.363281 18.621094 C 32.667969 15.722656 32.121094 13.679688 31.554688 12.683594 Z M 31.554688 12.683594 "/>
</g>
</svg>
