<?xml version="1.0" encoding="UTF-8"?>
<svg xmlns="http://www.w3.org/2000/svg" xmlns:xlink="http://www.w3.org/1999/xlink" width="34pt" height="34pt" viewBox="0 0 34 34" version="1.1">
<g id="surface1">
<path style=" stroke:none;fill-rule:nonzero;fill:rgb(0%,0%,0%);fill-opacity:1;" d="M 32.121094 0 L 1.878906 0 C 0.839844 0 0 0.839844 0 1.878906 L 0 32.125 C 0 33.160156 0.839844 34 1.878906 34 L 18.160156 34 L 18.160156 20.832031 L 13.730469 20.832031 L 13.730469 15.703125 L 18.160156 15.703125 L 18.160156 11.917969 C 18.160156 7.527344 20.84375 5.136719 24.761719 5.136719 C 26.640625 5.136719 28.25 5.277344 28.722656 5.339844 L 28.722656 9.929688 L 26.003906 9.929688 C 23.875 9.929688 23.460938 10.941406 23.460938 12.425781 L 23.460938 15.703125 L 28.542969 15.703125 L 27.882812 20.835938 L 23.460938 20.835938 L 23.460938 34 L 32.125 34 C 33.160156 34 34 33.160156 34 32.121094 L 34 1.878906 C 34 0.839844 33.160156 0 32.121094 0 Z M 32.121094 0 "/>
</g>
</svg>
