<?xml version="1.0" encoding="UTF-8"?>
<svg xmlns="http://www.w3.org/2000/svg" xmlns:xlink="http://www.w3.org/1999/xlink" width="34pt" height="34pt" viewBox="0 0 34 34" version="1.1">
<g id="surface1">
<path style=" stroke:none;fill-rule:nonzero;fill:rgb(0%,0%,0%);fill-opacity:1;" d="M 4.382812 0 L 29.757812 0 C 32.167969 0 34.136719 1.785156 34.136719 4.382812 L 34.136719 29.757812 C 34.136719 32.355469 32.167969 34.136719 29.757812 34.136719 L 4.382812 34.136719 C 1.972656 34.136719 0 32.355469 0 29.757812 L 0 4.382812 C 0 1.785156 1.972656 0 4.382812 0 Z M 24.867188 3.792969 C 24.023438 3.792969 23.332031 4.484375 23.332031 5.328125 L 23.332031 9.007812 C 23.332031 9.855469 24.023438 10.546875 24.867188 10.546875 L 28.726562 10.546875 C 29.574219 10.546875 30.265625 9.855469 30.265625 9.007812 L 30.265625 5.328125 C 30.265625 4.484375 29.574219 3.792969 28.726562 3.792969 Z M 30.28125 14.4375 L 27.273438 14.4375 C 27.558594 15.363281 27.714844 16.347656 27.714844 17.367188 C 27.714844 23.042969 22.960938 27.648438 17.101562 27.648438 C 11.242188 27.648438 6.492188 23.042969 6.492188 17.367188 C 6.492188 16.347656 6.644531 15.363281 6.929688 14.4375 L 3.792969 14.4375 L 3.792969 28.859375 C 3.792969 29.605469 4.402344 30.214844 5.152344 30.214844 L 28.921875 30.214844 C 29.671875 30.214844 30.28125 29.605469 30.28125 28.859375 Z M 17.101562 10.351562 C 13.316406 10.351562 10.246094 13.324219 10.246094 16.996094 C 10.246094 20.664062 13.316406 23.636719 17.101562 23.636719 C 20.886719 23.636719 23.957031 20.664062 23.957031 16.996094 C 23.957031 13.324219 20.886719 10.351562 17.101562 10.351562 Z M 17.101562 10.351562 "/>
</g>
</svg>
